<mxfile host="app.diagrams.net" modified="2022-12-10T21:18:33.440Z" agent="5.0 (Windows NT 10.0; Win64; x64) AppleWebKit/537.36 (KHTML, like Gecko) Chrome/108.0.0.0 Safari/537.36 Edg/108.0.1462.42" etag="n4OryehZk2ZsiTebb5M-" version="20.6.1" type="github">
  <diagram name="Page-1" id="13e1069c-82ec-6db2-03f1-153e76fe0fe0">
    <mxGraphModel dx="1146" dy="635" grid="1" gridSize="10" guides="1" tooltips="1" connect="1" arrows="1" fold="1" page="1" pageScale="1" pageWidth="1100" pageHeight="850" background="none" math="0" shadow="0">
      <root>
        <mxCell id="0" />
        <mxCell id="1" parent="0" />
        <mxCell id="pMNqPeBYh1VJxCav3pvk-14" value="" style="group" vertex="1" connectable="0" parent="1">
          <mxGeometry x="100" y="80" width="930" height="540" as="geometry" />
        </mxCell>
        <mxCell id="7baba1c4bc27f4b0-2" value="接入层" style="shape=umlLifeline;perimeter=lifelinePerimeter;whiteSpace=wrap;html=1;container=1;collapsible=0;recursiveResize=0;outlineConnect=0;rounded=1;shadow=0;comic=0;labelBackgroundColor=none;strokeWidth=1;fontFamily=Comic Sans MS;fontSize=14;align=center;sketch=1;" parent="pMNqPeBYh1VJxCav3pvk-14" vertex="1">
          <mxGeometry x="206" width="100" height="540" as="geometry" />
        </mxCell>
        <mxCell id="7baba1c4bc27f4b0-10" value="" style="html=1;points=[];perimeter=orthogonalPerimeter;rounded=0;shadow=0;comic=0;labelBackgroundColor=none;strokeWidth=1;fontFamily=Comic Sans MS;fontSize=14;align=center;sketch=1;" parent="7baba1c4bc27f4b0-2" vertex="1">
          <mxGeometry x="45" y="100" width="10" height="130" as="geometry" />
        </mxCell>
        <mxCell id="pMNqPeBYh1VJxCav3pvk-9" value="" style="html=1;points=[];perimeter=orthogonalPerimeter;rounded=0;shadow=0;comic=0;labelBackgroundColor=none;strokeWidth=1;fontFamily=Comic Sans MS;fontSize=14;align=center;sketch=1;" vertex="1" parent="7baba1c4bc27f4b0-2">
          <mxGeometry x="45" y="410" width="10" height="130" as="geometry" />
        </mxCell>
        <mxCell id="pMNqPeBYh1VJxCav3pvk-13" value="10、返回faqId" style="html=1;verticalAlign=bottom;endArrow=open;dashed=1;endSize=8;rounded=0;sketch=1;fontFamily=Comic Sans MS;fontSize=14;fontColor=#000000;" edge="1" parent="7baba1c4bc27f4b0-2">
          <mxGeometry relative="1" as="geometry">
            <mxPoint x="34" y="500" as="sourcePoint" />
            <mxPoint x="-146" y="500" as="targetPoint" />
          </mxGeometry>
        </mxCell>
        <mxCell id="7baba1c4bc27f4b0-3" value="数据转换模块" style="shape=umlLifeline;perimeter=lifelinePerimeter;whiteSpace=wrap;html=1;container=1;collapsible=0;recursiveResize=0;outlineConnect=0;rounded=1;shadow=0;comic=0;labelBackgroundColor=none;strokeWidth=1;fontFamily=Comic Sans MS;fontSize=14;align=center;sketch=1;" parent="pMNqPeBYh1VJxCav3pvk-14" vertex="1">
          <mxGeometry x="411" width="100" height="540" as="geometry" />
        </mxCell>
        <mxCell id="7baba1c4bc27f4b0-13" value="" style="html=1;points=[];perimeter=orthogonalPerimeter;rounded=0;shadow=0;comic=0;labelBackgroundColor=none;strokeWidth=1;fontFamily=Comic Sans MS;fontSize=14;align=center;sketch=1;" parent="7baba1c4bc27f4b0-3" vertex="1">
          <mxGeometry x="45" y="120" width="10" height="120" as="geometry" />
        </mxCell>
        <mxCell id="pMNqPeBYh1VJxCav3pvk-4" value="" style="html=1;points=[];perimeter=orthogonalPerimeter;rounded=0;shadow=0;comic=0;labelBackgroundColor=none;strokeWidth=1;fontFamily=Comic Sans MS;fontSize=14;align=center;sketch=1;" vertex="1" parent="7baba1c4bc27f4b0-3">
          <mxGeometry x="45" y="260" width="10" height="100" as="geometry" />
        </mxCell>
        <mxCell id="pMNqPeBYh1VJxCav3pvk-7" value="" style="html=1;points=[];perimeter=orthogonalPerimeter;rounded=0;shadow=0;comic=0;labelBackgroundColor=none;strokeWidth=1;fontFamily=Comic Sans MS;fontSize=14;align=center;sketch=1;" vertex="1" parent="7baba1c4bc27f4b0-3">
          <mxGeometry x="45" y="410" width="10" height="130" as="geometry" />
        </mxCell>
        <mxCell id="pMNqPeBYh1VJxCav3pvk-10" value="&lt;font color=&quot;#000000&quot;&gt;7、根据faqId更新objectId&lt;/font&gt;" style="html=1;verticalAlign=bottom;endArrow=block;rounded=0;sketch=1;fontFamily=Comic Sans MS;fontSize=14;fontColor=#FF0000;" edge="1" parent="7baba1c4bc27f4b0-3">
          <mxGeometry width="80" relative="1" as="geometry">
            <mxPoint x="55" y="440" as="sourcePoint" />
            <mxPoint x="319" y="440" as="targetPoint" />
          </mxGeometry>
        </mxCell>
        <mxCell id="pMNqPeBYh1VJxCav3pvk-12" value="9、返回faqId" style="html=1;verticalAlign=bottom;endArrow=open;dashed=1;endSize=8;rounded=0;sketch=1;fontFamily=Comic Sans MS;fontSize=14;fontColor=#000000;" edge="1" parent="7baba1c4bc27f4b0-3">
          <mxGeometry relative="1" as="geometry">
            <mxPoint x="39" y="500" as="sourcePoint" />
            <mxPoint x="-151" y="500" as="targetPoint" />
          </mxGeometry>
        </mxCell>
        <mxCell id="7baba1c4bc27f4b0-4" value="数据索引模块&lt;br style=&quot;font-size: 14px;&quot;&gt;(mysql)" style="shape=umlLifeline;perimeter=lifelinePerimeter;whiteSpace=wrap;html=1;container=1;collapsible=0;recursiveResize=0;outlineConnect=0;rounded=1;shadow=0;comic=0;labelBackgroundColor=none;strokeWidth=1;fontFamily=Comic Sans MS;fontSize=14;align=center;sketch=1;" parent="pMNqPeBYh1VJxCav3pvk-14" vertex="1">
          <mxGeometry x="690" width="100" height="540" as="geometry" />
        </mxCell>
        <mxCell id="pMNqPeBYh1VJxCav3pvk-2" value="4、返回成功" style="html=1;verticalAlign=bottom;endArrow=open;dashed=1;endSize=8;rounded=0;sketch=1;fontFamily=Comic Sans MS;fontSize=14;" edge="1" parent="7baba1c4bc27f4b0-4">
          <mxGeometry relative="1" as="geometry">
            <mxPoint x="45" y="214.57999999999998" as="sourcePoint" />
            <mxPoint x="-220" y="214" as="targetPoint" />
          </mxGeometry>
        </mxCell>
        <mxCell id="pMNqPeBYh1VJxCav3pvk-8" value="" style="html=1;points=[];perimeter=orthogonalPerimeter;rounded=0;shadow=0;comic=0;labelBackgroundColor=none;strokeWidth=1;fontFamily=Comic Sans MS;fontSize=14;align=center;sketch=1;" vertex="1" parent="7baba1c4bc27f4b0-4">
          <mxGeometry x="45" y="410" width="10" height="130" as="geometry" />
        </mxCell>
        <mxCell id="7baba1c4bc27f4b0-5" value="存储产品" style="shape=umlLifeline;perimeter=lifelinePerimeter;whiteSpace=wrap;html=1;container=1;collapsible=0;recursiveResize=0;outlineConnect=0;rounded=1;shadow=0;comic=0;labelBackgroundColor=none;strokeWidth=1;fontFamily=Comic Sans MS;fontSize=14;align=center;sketch=1;" parent="pMNqPeBYh1VJxCav3pvk-14" vertex="1">
          <mxGeometry x="830" width="100" height="540" as="geometry" />
        </mxCell>
        <mxCell id="pMNqPeBYh1VJxCav3pvk-3" value="" style="html=1;points=[];perimeter=orthogonalPerimeter;rounded=0;shadow=0;comic=0;labelBackgroundColor=none;strokeWidth=1;fontFamily=Comic Sans MS;fontSize=14;align=center;sketch=1;" vertex="1" parent="7baba1c4bc27f4b0-5">
          <mxGeometry x="45" y="260" width="10" height="100" as="geometry" />
        </mxCell>
        <mxCell id="7baba1c4bc27f4b0-8" value="NGD组件" style="shape=umlLifeline;perimeter=lifelinePerimeter;whiteSpace=wrap;html=1;container=1;collapsible=0;recursiveResize=0;outlineConnect=0;rounded=1;shadow=0;comic=0;labelBackgroundColor=none;strokeWidth=1;fontFamily=Comic Sans MS;fontSize=14;align=center;sketch=1;" parent="pMNqPeBYh1VJxCav3pvk-14" vertex="1">
          <mxGeometry width="100" height="540" as="geometry" />
        </mxCell>
        <mxCell id="7baba1c4bc27f4b0-9" value="" style="html=1;points=[];perimeter=orthogonalPerimeter;rounded=0;shadow=0;comic=0;labelBackgroundColor=none;strokeWidth=1;fontFamily=Comic Sans MS;fontSize=14;align=center;sketch=1;" parent="7baba1c4bc27f4b0-8" vertex="1">
          <mxGeometry x="45" y="100" width="10" height="440" as="geometry" />
        </mxCell>
        <mxCell id="7baba1c4bc27f4b0-16" value="" style="html=1;points=[];perimeter=orthogonalPerimeter;rounded=0;shadow=0;comic=0;labelBackgroundColor=none;strokeWidth=1;fontFamily=Comic Sans MS;fontSize=14;align=center;sketch=1;" parent="pMNqPeBYh1VJxCav3pvk-14" vertex="1">
          <mxGeometry x="735" y="140" width="10" height="100" as="geometry" />
        </mxCell>
        <mxCell id="7baba1c4bc27f4b0-17" value="3、生成标识存储内容的唯一id&lt;font color=&quot;#ff0000&quot;&gt;（fapId）&lt;/font&gt;&lt;br style=&quot;font-size: 14px;&quot;&gt;和&lt;br style=&quot;font-size: 14px;&quot;&gt;文件名插入记录" style="html=1;verticalAlign=bottom;endArrow=block;labelBackgroundColor=none;fontFamily=Comic Sans MS;fontSize=14;edgeStyle=elbowEdgeStyle;elbow=vertical;sketch=1;" parent="pMNqPeBYh1VJxCav3pvk-14" source="7baba1c4bc27f4b0-13" target="7baba1c4bc27f4b0-16" edge="1">
          <mxGeometry relative="1" as="geometry">
            <mxPoint x="521" y="140" as="sourcePoint" />
            <Array as="points">
              <mxPoint x="471" y="140" />
            </Array>
          </mxGeometry>
        </mxCell>
        <mxCell id="7baba1c4bc27f4b0-11" value="1、存储数据内容和文件标识" style="html=1;verticalAlign=bottom;endArrow=block;entryX=0;entryY=0;labelBackgroundColor=none;fontFamily=Comic Sans MS;fontSize=14;edgeStyle=elbowEdgeStyle;elbow=vertical;sketch=1;" parent="pMNqPeBYh1VJxCav3pvk-14" source="7baba1c4bc27f4b0-9" target="7baba1c4bc27f4b0-10" edge="1">
          <mxGeometry relative="1" as="geometry">
            <mxPoint x="120" y="110" as="sourcePoint" />
          </mxGeometry>
        </mxCell>
        <mxCell id="7baba1c4bc27f4b0-14" value="2、存储数据内容和文件标识" style="html=1;verticalAlign=bottom;endArrow=block;entryX=0;entryY=0;labelBackgroundColor=none;fontFamily=Comic Sans MS;fontSize=14;edgeStyle=elbowEdgeStyle;elbow=vertical;sketch=1;" parent="pMNqPeBYh1VJxCav3pvk-14" source="7baba1c4bc27f4b0-10" target="7baba1c4bc27f4b0-13" edge="1">
          <mxGeometry relative="1" as="geometry">
            <mxPoint x="336" y="120" as="sourcePoint" />
          </mxGeometry>
        </mxCell>
        <mxCell id="pMNqPeBYh1VJxCav3pvk-5" value="5、按照&lt;font color=&quot;#ff0000&quot;&gt;环境配置文件&lt;/font&gt;，接口上传存储数据到&lt;font color=&quot;#3333ff&quot;&gt;指定存储产品&lt;/font&gt;" style="html=1;verticalAlign=bottom;endArrow=block;rounded=0;sketch=1;fontFamily=Comic Sans MS;fontSize=14;" edge="1" parent="pMNqPeBYh1VJxCav3pvk-14">
          <mxGeometry width="80" relative="1" as="geometry">
            <mxPoint x="470" y="280" as="sourcePoint" />
            <mxPoint x="870" y="280" as="targetPoint" />
          </mxGeometry>
        </mxCell>
        <mxCell id="pMNqPeBYh1VJxCav3pvk-6" value="&lt;font color=&quot;#000000&quot;&gt;6、返回&lt;/font&gt;&lt;font color=&quot;#3333ff&quot;&gt;存储产品&lt;/font&gt;&lt;font color=&quot;#000000&quot;&gt;，存储数据的唯一标识Id(&lt;/font&gt;objectID&lt;font color=&quot;#000000&quot;&gt;)&lt;/font&gt;" style="html=1;verticalAlign=bottom;endArrow=open;dashed=1;endSize=8;rounded=0;sketch=1;fontFamily=Comic Sans MS;fontSize=14;fontColor=#FF0000;" edge="1" parent="pMNqPeBYh1VJxCav3pvk-14">
          <mxGeometry relative="1" as="geometry">
            <mxPoint x="870" y="344" as="sourcePoint" />
            <mxPoint x="470" y="344" as="targetPoint" />
          </mxGeometry>
        </mxCell>
        <mxCell id="pMNqPeBYh1VJxCav3pvk-11" value="8、返回成功" style="html=1;verticalAlign=bottom;endArrow=open;dashed=1;endSize=8;rounded=0;sketch=1;fontFamily=Comic Sans MS;fontSize=14;fontColor=#000000;" edge="1" parent="pMNqPeBYh1VJxCav3pvk-14">
          <mxGeometry relative="1" as="geometry">
            <mxPoint x="730" y="500" as="sourcePoint" />
            <mxPoint x="470" y="500" as="targetPoint" />
          </mxGeometry>
        </mxCell>
      </root>
    </mxGraphModel>
  </diagram>
</mxfile>
